<?xml version="1.0" encoding="UTF-8"?>
<svg id="_图层_1" data-name="图层 1" xmlns="http://www.w3.org/2000/svg" viewBox="0 0 380.97 697.37">
  <defs>
    <style>
      .cls-1 {
        stroke: #000;
        stroke-miterlimit: 10;
      }

      .cls-1, .cls-2 {
        fill: none;
      }
    </style>
  </defs>
  <path class="cls-1" d="M101.91,138.61c9.41-15.4,16.81-39.29,19.65-57.04,0,0,1.32-24.27,1.32-24.27l-2.22-13.96c-1.11-4.59-4.98-20.26-5.06-24.78,.08-3.8,.21-14.48-1.15-18.07h-2.7c-8.36,9.74-21.36,25.45-30.88,34.25-14.21,12.05-31.34,31.3-41.8,46.65-9.99,17.15-21.91,39.16-21.78,59.53-.81,11.88,2.78,28.48,5.6,39.98,0,0,7.55,16.99,7.55,16.99l15.64,27.24s11.33,12.4,11.33,12.4l-10.92,10.45-9.1,14.83-9.91,23.8-2.97,30.74,5.12,27.78,16.18,22.38,11.19,11.33,11.06,10.38,5.26,2.29-8.36,7.28-3.37,11.06,2.16,7.15,2.29-8.22c1.33,9.22,1.02,8.89,6.2,16.72l1.35,.54-.27-11.73,2.7-8.49,2.97,7.96,14.83,8.36c16.6,4.99,37.09,8.75,54.4,9.24,7.32,.41,23.07,1.12,30.27,.88,0,0,11.41-.2,11.41-.2l5.02-2.39c3.38-1.11,19.21-11.83,22.5-13.9,0,0,10.16-9.4,10.16-9.4l8.34-8.07s4.45-6.88,4.45-6.88c0,0,1.48-7.55,1.48-7.55l-.94-6.88-5.66-4.04c4.06-4.33,8.81-11.11,12.51-15.78,6.08-6.89,5.66-5.66,7.52-14.7,1.39-16.83,2.24-36.42-4.05-52.45,0,0-4.99-9.37-4.99-9.37,0,0-10.52-13.48-10.52-13.48l.66-18s-.76,19.11-.76,19.11-4.15,14.6-4.15,14.6c-3.77,4.48-12.03,13.53-16.45,17.26,0,0-10.92,6.07-10.92,6.07l-10.52,4.85-3.91,4.31-.94,6.61,1.21,5.53s-4.58-2.9-4.58-2.9c0,0-3.94-4.75-3.94-4.75l-8.49-5.87c-5.1-.72-16.83-4.92-21.74-6.78,0,0-18.51-11.83-18.51-11.83l-9.1-11.43-5.06-15.57s-1.21-11.12-1.21-11.12c.09-1.13,.63-10.06,.71-11.02,1.06-2.49,3.72-11.14,5.56-13.15l-6.27,13.55-.61,11.83c.09,1.18,1.08,10.06,.91,11.02-.51-1.38-5.2-11.33-4.85-12.64-2.38,3.96-7.83,11.06-11.12,14.26,0,0-7.58,5.26-7.58,5.26l-9.61,7.08-10.01,10.62-9.81,11.53-7.99,12.64s-2.53,15.67-2.53,15.67c0,0,1.82,10.31,1.82,10.31,0,0,6.27,15.37,6.27,15.37s10.72,10.72,10.72,10.72,13.96,9.71,13.96,9.71c3.99,2.66,13.29,8.91,17.8,10.52l-6.67,1.21-5.26,9.1,1.62,10.52s8.7,6.07,8.7,6.07l14.36,6.67,20.33,3.84c16.06,4.11,35.9,3.6,52.31,3.54l.03,.78c8.6-3.14,23.93-11.98,32.09-16.45,0,0,14.02-12.13,14.02-12.13,5.24-6.59,12.52-14.05,13.48-22.92l-1.75-4.72c1.86-.31,5.65,.62,7.42,1.21,1.23,1.44,3.74,4.32,4.99,5.73l1.01,.27-.47-4.25-3.44-5.46-3.78-2.29c2.19-.44,5.86-.44,8.09-.4l-1.42-2.16-3.1-1.62c-3.62,0-10.99,0-14.63,0,0,0,11.19-12.88,11.19-12.88,2.33-4.83,7.11-15.14,8.7-20.16,1.13-9.31,1.59-27.95,.81-37.28,0,0-3.44-12.67-3.44-12.67l-8.9-17.73c-2.72-3.33-11.48-15.02-14.63-17.73l-1.89-9.84c-2.12-3.79-7.07-11.23-10.11-14.29,3.69,2.29,11.21,7.41,14.43,10.25,0,0,7.55,2.16,7.55,2.16l3.37-.67c-15.33-10.12-25.89-29.98-40.35-41.16,0,0-14.66-8.39-14.66-8.39,0,0-12.24-.61-12.24-.61,0,0-6.57,2.73-6.57,2.73l12.64-10.72c3.29-5.46,9.95-13.99,11.53-20.22-3.22,2.79-11.17,9.18-14.56,11.93,0,0-11.12,5.36-11.12,5.36-7.57,.94-29.13,4.21-36.98,5.39,0,0-15.37,2.56-15.37,2.56l-9.57,3.91c-6.67,5.93-17.81,14.82-22.65,22.38l-7.42-7.55s-3.24-6.74-3.24-6.74l.81-10.92,5.73-16.52c3.11-5.46,13.41-23.19,15.98-28.51,1.88-5.61,6.35-13.89,8.24-19.52,0,0,2.21-8.6,2.21-8.6l.88-13.48c-.45-8.02-2.66-19.19-4.79-26.9-3.32,8.87-14.4,17.11-21.51,22.85,0,0-16.89,16.01-16.89,16.01,0,0-14.76,18.61-14.76,18.61-3.61,6.61-13.46,24.16-15.2,31.31-.23,5-.3,15.49,.39,20.41,3.28,10.77,11.37,24.31,18.15,33.25,.93,.98,5.13,7.33,6.81,7.42-.83-4.4-2.15-13.51-1.89-17.93,1.56-3.71,5.66-10.76,7.95-14.09,0,0,7.2-7.56,7.2-7.56,1.71-2.93,6.17-10.62,6.69-13.95,3.79-7.2,11.5-22.07,16.79-28.34Z"/>
  <path class="cls-1" d="M292.97,203.69l15.37-6.74,12.54-9.98,12.27-16.45,7.15-10.65,1.62-6.2-9.57,5.93-13.21,3.37s-12,.94-12,.94c-5.96-.74-18.03-2.38-24-3.24,0,0-21.44,.94-21.44,.94l-14.97,5.26-13.48,9.84-15.51,22.79,1.11,4.01,11.78,14.31,12.19,.83,16.18-2.29,26.02-8.09,7.93-4.5,4.68-1.23,17.33-6.81,18.67-10.58,21.3-21.1,19.62-27.91,5.93-14.29v-7.55s-7.55,3.51-7.55,3.51l-24.27,1.89s-19.42,1.35-19.42,1.35c-7.91-.03-24.24-2.06-32.09-3.51,0,0-27.51,3.78-27.51,3.78l-19.35,7.08s-18,13.75-18,13.75c-9.05,12.49-24.03,34.43-30.96,48.31l8,4.58,9.49,8.53,11.79,14.29,12.21,.85,16.18-2.28c6.35-2.04,29.08-8.29,33.96-12.73Z"/>
  <path class="cls-1" d="M206.42,304.88c-.89,2.72-1.64,7.19-2.74,9.88-.51,4.03-.61,16.29-.66,20.53,.49,10.33-1.68,28.88,5.06,37.57,.23-4.03,0-14.59-.12-18.76,0,0,1.89-10.31,1.89-10.31,3.83-8.1,3-7.08,10.45-12.07l7.21-.54c3.67,.65,10.9,2.6,14.29,4.11,2.87-.46,8.78-1.39,11.63-1.82l-4.85,6.07,6.93-.11-2.07,11.13-5.66,6.57,.3-5.66-1.42-9.3-4.25-4.25-7.15-2.63h-5.19l-4.45,.61-5.26,4.04c-5.79,5.52-4.77,5.47-6.88,12.8,0,0,2.02,9.45,2.02,9.45l3.44,5.87,6.67,3.44,9.64,1.42-21.02,1.72c-1.04-.05-5.02-1.18-6.08-1.45l2.02,2.56-12,2.97,14.7-2.56,4.31,2.83v4.04c-2.14,1.69-6.33,5.2-8.36,7.01,0,0-1.08,2.43-1.08,2.43,0,0-3.37,.4-3.37,0-.34-1.42-2.94-2.49-3.91-3.24,0,0-7.69-2.16-7.69-2.7s-.67-4.72-.67-4.72l5.39-2.7c-3.33,.94-10.74,2.7-14.16,2.7,0,0-5.12,1.75-5.12,1.75h-3.94c.86-6.11,5.78-14.94,7.85-20.76,.47-6.04-.95-19.93-1.75-26.02,0,0-4.31-12.81-4.31-12.81-2.05-2.49-7.26-9.04-9.64-11.12l.21-.36,6.29,1.48,8.49,5.87,3.94,4.75,4.58,2.9-1.21-5.53,.94-6.61,3.91-4.31,12.82-6.13Z"/>
  <path class="cls-1" d="M145.59,334.88l-10.65-1.48-15.1,1.48c-7.17,3.07-16,10.67-22.65,14.7h-4.85c.64,8.61,5.93,19.43,10.11,26.83,0,0,9.44,7.82,9.44,7.82,2.03,.85,9.9,4.59,12,4.85,0,0-4.92-3.51-4.92-3.51-1.85-3.21-5.69-10.31-7.48-13.62,0,0-1.08-9.71-1.08-9.71,0,0,1.75-9.84,1.75-9.84l5.39-7.28,9.17-6.07,9.84-3.51c2.82,.1,9.26,.28,11.95,1.1,6.23,4.02,12.66,12.53,16.37,18.86,0,0,3.1,8.9,3.1,8.9-1.51,12.1-1.66,10-8.36,19.69,0,0-8.83,4.99-8.83,4.99,0,0-8.36,1.69-8.36,1.69h-11.6c-5.26-1.43-12.62-2.31-18.07-2.36,0,0-9-5.49-9-5.49-2.7-2.54-8.05-8.04-10.62-10.75-3.43-4.23-14.01-16.26-16.04-21.24l7.35,3.3,5.53,.74c-3.37-5.19-10.57-9.73-12.88-15.64l4.85,2.9,6.81,1.82,8.63-.13,4.04-1.89c-5.26-4.69-11.09-11.68-11.66-19.01,0,0,8.43,7.01,8.43,7.01,4.02,1.01,12.07,3.08,16.08,4.15,0,0,11.22-2.02,11.22-2.02l21.71,2.9,8.49,5.36c2.92,3.32,8.27,10.46,10.72,14.16,1.41,4.02,3.51,12.34,3.84,16.58,0,0,0,9.71,0,9.71l-7.96,5.8-9.17,3.24c-8.58,.81-20.98,2.07-29.3-.75,0,0-4.92-3.51-4.92-3.51l-7.48-13.67s-1.08-9.71-1.08-9.71,1.75-9.85,1.75-9.85l5.41-7.28,9.19-6.08,9.85-3.53c2.86,.08,9.29,.24,12.02,1.07l-1.38-1.4-1.61-.29Z"/>
  <path class="cls-2" d="M220.43,311.02c9.68-4.11,9.04-4.34,19.69-4.04,2.55,.97,8.78,3.26,11.33,4.04l.94,1.21h-3.64l-6.34-1.89-9.03-.74c-3.18,.31-9.81,1.01-12.94,1.42Z"/>
  <path class="cls-2" d="M128.34,312.23c-5.83-1.46-17.64-3.69-23.6-4.31,0,0-9.71,1.35-9.71,1.35-1.6,1.05-11.66,6.96-12.67,8.36,8.72-3.17,21.16-5.57,30.47-5.53,3.2,.23,12.46,.97,15.51,.13Z"/>
  <path class="cls-1" d="M225.33,356.33l2.1-3.79v-5.54c.47-2.65,1.87-7.93,2.7-10.51l-5.93,2.16-5.39,4.85s-1.62,4.18-1.62,4.58,.54,5.39,.54,5.39l3.64,3.1h4.04l3.24,3.24-1.89,3.24,.81,3.78,2.56,2.02h4.45l2.97-2.29,.81-4.58-3.24-3.24c-1.59,.03-4.86,.37-6.32,.99"/>
  <path class="cls-1" d="M128.24,372.3h-4.55l-3.84-3.84-1.01-6.88,.71-6.57c.92-2.24,3.04-6.73,4.15-8.9l5.16-2.83,5.56,1.21,1.11,4.27-2.12,6.95-2.73,3.84-.3,5.46c.08,.99,.61,4.47,.1,5.36l-2.07,1.92,2.17,3.57-1.42,3.37,.54,4.85,4.04,2.43h6.2l1.89-4.58-3.1-6.07-3.64-.54-4.33,.51"/>
  <path class="cls-1" d="M248.89,382.07c4.25-2.78,14.08-9.03,18.5-11.3l6.78,1.92,3.84,2.93,14.06-5.46c-.61-2.23,.32-8.05,.71-10.31,1.59-1.86,6.15-8.47,7.58-10.35,0,0,3.34-1.94,3.34-1.94l-1.16,5.8-2.88,5.41,3.03-5.39c.59-2.96,2.17-8.95,3.3-11.73l2.43-1.96c-.53,5.9-1.11,14.86-3.69,20.26l-1.84,.91,1.89-.88c3.18-7.02,3.31-16.66,4.45-24.13l3.17-.61,1.82,2.46,.91,5.21c.4,4.51,.02,13.73-.51,18.25-.02,1.55-.76,9.89,0,11.22,8.36,.78,9.13-2.84,15.3-6.61l3.34,1.04,1.85,1.79c.24,.35-9.38,7.13-9.7,7.42-2.46,1.77-8.45,5.9-11.4,6.57-2.04,.11-7.04,.54-8.9,1.38l-15.37,18.94,.81,7.82-1.89,3.51s-3.78,2.43-3.78,2.43c-9.77,2.34-32.07,7.98-42,10.52,0,0-19.48,4.27-19.48,4.27-5.37,2.27-15.71,7.75-20.63,10.9l9.4,31.85c3.27,4.8,8.71,11.16,13.35,14.66l-.51,3.34-2.02,3.74-3.13,3.54,.81,2.02c8.41,1.46,19.63-.52,27.81-2.63l1.21,6.07c-4.51,10.01-14.65,26.68-21.24,35.39l1.52,3.34,.1,8.09,.2,9.51-1.72,6.07c5.15,8.72,6.43,10.03,5.97,20.63l-2.22,.91c.63,1.02,7.52,5.58,8.6,6.37,0,0,6.67,6.67,6.67,6.67l-.51,8.9-2.09,6.67s1.55,8.97,1.55,8.97l1.82,4.45,4.85,6.67c4.52,5.62,16.44,19.88,21.22,25.57,4.48,9.49,3.97,8.61,3.86,18.99,0,0-3.64,7.01-3.64,7.01l-5.12,6.2-9.17,1.48-9.57-1.21-10.52-8.36-7.55-9.57-2.33-6.74v-5.33c-3.81-9.5-10.89-23.92-15.72-32.92l4.95-7.38,6.09-4.94,4.55,.64,6.57-.78,7.9-3.27-7.96,3.07-6.47,.74-4.45-.61,3.78-3.78-10.18,8.76-6.07,9.1s-6.88,.27-6.88,.27l-4.99-2.09c-2.09-2.31-5.56-7.3-6.88-10.11-1.74-5.57-5.09-17.35-6.27-22.99-6.37-12.95-18.57-26.17-24.14-39.51l-6.46-2.02c-2.76,3.35-8.7,10.81-11.06,14.29-7.77,4.13-28.36,20.11-35.6,25.69,0,0-14.7,15.24-14.7,15.24l-12,17.46-11.33,20.9s-1.48,6.61-1.48,6.61c1.87,3.16,5.53,9.69,7.28,12.94l-11.87-5.53-5.66-10.52-2.43-15.91,2.16-7.55-15.64,5.39-11.06,10.25-7.55,10.79s0-11.19,0-11.19,4.99-18.2,5.19-19.15,5.12-14.02,5.12-14.02l8.19-9.37c25.52-14.88,66.65-29.71,93.94-41.36-8.4,3.21-44.71,19.7-53.29,19.11,0,0-22.85,8.8-22.85,8.8-1.97,1-10.77,6.37-13.04,6.07l.4-4.35s9.61-12.84,9.61-12.84l8.6-5.16c5-1.2,15.13-3.4,20.17-4.35l1.47-1.82,.61-4.7c-1.88-1.41-4.52-5.62-5.61-7.69,10.04,5.03,23.68,4.37,34.53,3.19,0,0,9.57-1.48,9.57-1.48l8.22-2.7,8.09-4.72-10.38-8.9-7.2-8.49-1.23-5.26,13.28-2.63c4.29-1.69,13.22-5.39,17.36-7.31l.18-3.11-4.05-.17-4.47-2.06s-.96-3.94-.86-4.1c1.78-1.85,7.04-6.95,8.9-8.81v-30.61c-6.74,8.18-24,32.67-30.34,41.66-.61,3.17-.73,8.61-2.09,11.6l-6.34,3.1c-4.3,.19-14.6,.43-18.72-.56l-15.88,15.67c.27-3.97-.4-9.62-1.72-13.4,0,0-1.26-5.76-1.26-5.76l.3-6.12,.74-8.01,3.56-9.24,.3-6.07-1.31-2.33c-1.35,.18-4.82,.31-6.22,.35l-2.88,4.45-1.37,5.56c-.61,4.37-2.15,13.12-3.07,17.44l-4.04-.24c-2.12-2.41-5.96-7.57-7.55-10.35l4.45-5.29-2.83-2.83-1.42-6.2,1.21-6.34,7.75-4.99c6.41-1.79,19.09-6.25,24.91-9.37,13.2-10.48,33.94-24.36,47.45-34.31l.23-3.21,1.16-1.04s5.28,0,5.28,0c-.25-2.73,41.07-.36,42.51-.71,0,0,32.09-16.45,32.09-16.45l14.02-12.13,11.87-16.18s.82-5.39,.82-5.39Z"/>
  <path class="cls-1" d="M83.81,540.53l-1.89,6.81-3.44,5.46c-2.63,.96-8.04,2.73-10.72,3.44,0,0-4.65,3.84-4.65,3.84l-7.48,1.01c-6.31-2.24-5.7-2.13-9.71-7.28-4.91-5.07-13.15-10.01-19.62-12.74,0,0-6.47-2.02-6.47-2.02l-14.56-1.31-3.44-2.02-1.31-5.36,.51-1.62c2.14-.18,34.05,4.74,34.99,1.92l.51-2.33c-2.24-2.43-21.95-18.04-24.98-20.53,0,0-1.21-2.43-1.21-2.43l-.3-4.55,1.01-1.42,5.46,1.11c2.14,1.21,29.11,21.99,31.35,21.03l1.62-.51,1.11-4.75c-1.68-4.51-9.18-24.42-10.62-28.52,0,0,.3-5.46,.3-5.46l2.43-2.73,3.84,.81,4.75,6.47s2.12,7.79,2.22,8.39c2.69,6.49,9.29,16.3,13.42,21.6l4.04,.24c1.64-6.98,2.35-21.92,7.31-27.46l6.22-.35,1.31,2.33-.3,6.07-3.56,9.24-1.04,14.12,2.63,10.82,.27,8.67Z"/>
  <path class="cls-1" d="M180.04,432.23c1.78,5.4,4.59,17.54,5.73,23.19-.14,6.35,.11,18.47,.71,24.88,.29,6.38,.9,20.34,.71,26.39,0,0-3.57,7.08-3.57,7.08l.07,.37,10.28-.27c2.19-.61,7.27-2.12,9.27-3.1l-.47-12-.78-.51-7.42,2.16,7.18-2.83c-1.44-2.46-4.65-7.75-6.17-10.21-1.38-3.8-2.19-12.07-3.2-15.98l-2.76,1.55-.34-.81,2.93-1.72c-1.78-9.19-3.55-20.58-4.72-29.81l-2.17,.76-.51-.66,2.58-.61-1.62-6.93,1.86,6.84,2.88-.54,.05,.96-2.89,.06c.28,2.97,1.21,8.88,1.97,11.74,.15,4.32,1.93,13.73,2.91,18l3.74-.3,.03,.76-3.69,.35c2.11,13.65,1.46,14.45,9.31,26.38l4.26-.54v.4l-3.67,.57,.99,12.9,5.33-2.17,5.5-3.95v-7.96c-6.57-3.82-6.46-6.52-9.57-12.67-2.16-4.47-5.71-13.69-7.01-18.47-2.05-5.49-5.26-16.87-6.07-22.65-.57-2.16-2.23-8.41-1.62-10.65h-10.04Z"/>
  <path class="cls-1" d="M245.98,512.4l-2.38,.07c-1.86,1.62-4.95,7.05-6.32,9.02,0,0-6.98,6.71-6.98,6.71l-2.9,.74-5.68-.4-3.99-2.28-2.76-4.57c-.27-1.3-1.9-7.74-2.23-8.89l-14.09,8.48c2.16,5.64,3.95,14.38,4.72,20.36,0,0,1.55,7.69,1.55,7.96-.12,.86-2.61,4.67-2.7,5.66,9.61-1.65,18.83-9.09,26.27-14.96-4.19,3.22-15.37,11.86-20.32,13.47l-.32,1.12,9.74,19.04,1.35,.81,4.92-2.22,4.69-5.17-4.64,5.27c-.62,.35-5.5,2.53-5.79,3.13,1.59,2.56,7.85,8.99,10.01,11.22,0,0,4.15,1.91,4.15,1.91l2.22-.91c.47-10.57-.85-11.96-5.93-20.65l1.69-6.05-.3-17.6-1.46-3.38c4.89-6.14,13.67-20.93,17.47-27.91Z"/>
  <path class="cls-1" d="M195.21,419.86l-1.52-2.87-2.12-1.52c-2.09-.21-6.55-.51-8.63-.4-.76-3.14-2.51-9.97-3.51-12.98-.4-.57-3.34-4.9-3.71-5.33l3.98,4.65c1.77,.71,5.33,2.34,6.94,3.3,3.3,.73,8.14,1.31,11.39,.13,.88-.53,3.53-2.06,4.42-2.5l-.3,1.69,.71,.68c2.16,0,5.46-.31,7.58-.68l2.78-3.44-2.73,3.69-7.66,.73-.76-.35c-2.63,4.28-4.62,10.81-6.86,15.28,0,0-1.56,3.1-1.56,3.1l-2.33,2.33h-2.93l-2.43-1.01-2.02-2.93c-.21-1.21-.94-5.18-1.01-6.34"/>
  <path class="cls-1" d="M220.11,501.21c-2.97,1.62-8.58,5.31-11.25,7.38-3.19,1.51-11.44,4.2-14.89,5.28-4,.01-12.91,.34-16.79,1.06-4.77,.17-14.38-.19-19.11-.78-.02,.05-.43,3.4-.47,3.45,6,1.79,14.34,4.08,20.59,4.87,3.94-.26,11.87-.19,15.81,.1l-8.02,.2c-1.66,9.79-2.2,8.67-7.96,16.18,0,0-7.15,7.55-7.15,7.55l-5.93,3.78-5.97,.81c-4.34-.94-13.26-3.32-17.33-5.02,5.78,4.78,15.59,11.14,22.77,13.47,3.43,1.34,16.37,1.28,20.15,1.39,0,0,2.63-1.28,2.63-1.28,.76-3.89,5.88-19.79,7.15-23.87,0,0,.34-13.55,.34-13.55,2.94,.01,11.06-4.79,13.62-6.18,0,0,9.17-6.7,9.17-6.7l3.46-7.01-.81-1.14"/>
</svg>